# AST/ASF file generated using VICON BodyLanguage
# -----------------------------------------------
:version 1.10
:name VICON
:units
  mass 1.0
  length 0.1
  angle deg
:documentation
   .ast/.asf automatically generated from VICON data using
   VICON BodyBuilder and BodyLanguage model FULLBODY5.MOD
:root
   order TX TY TZ RZ RY RX
   axis XYZ
   position 0 0 0  
   orientation 0 -0 0 
:bonedata
  begin
     id 1 
     name lhipjoint
     direction 0.961525 -0.229516 0.150972 
     length 0.502153 
     axis 0 -0 0  XYZ
  end
  begin
     id 2 
     name lfemur
     direction 0.173648 -0.984808 0  
     length 1.83052  
     axis 0 -0 10  XYZ
    dof rx ry rz
    limits (-180.0 180.0)
           (-180.0 180.0)
           (-180.0 180.0)
  end
  begin
     id 3 
     name ltibia
     direction 0.173629 -0.984811 0   
     length 1.50296   
     axis 0 -0 10   XYZ
    dof rx ry rz
    limits (-180.0 180.0)
           (-180.0 180.0)
           (-180.0 180.0)
  end
  begin
     id 4 
     name lfoot
     direction 7.59329e-012 -0.227408 0.9738   
     length 0.574743   
     axis -90 -1.73656e-015 10   XYZ
    dof rx ry rz
    limits (-180.0 180.0)
           (-180.0 180.0)
           (-180.0 180.0)
  end
  begin
     id 5 
     name ltoes
     direction 7.79885e-012 -4.41741e-011 1   
     length 0.28489   
     axis -90 -1.73656e-015 10   XYZ
    dof rx ry rz
    limits (-180.0 180.0)
           (-180.0 180.0)
           (-180.0 180.0)
  end
  begin
     id 6 
     name rhipjoint
     direction -0.970498 -0.201437 0.132502   
     length 0.572149  
     axis 0 -0 0  XYZ 
  end
  begin
     id 7 
     name rfemur
     direction -0.173648 -0.984808 0   
     length 1.71866   
     axis 0 -0 -10   XYZ
    dof rx ry rz
    limits (-180.0 180.0)
           (-180.0 180.0)
           (-180.0 180.0)
  end
  begin
     id 8 
     name rtibia
     direction -0.173624 -0.984812 0   
     length 1.42623   
     axis 0 -0 -10   XYZ
    dof rx ry rz
    limits (-180.0 180.0)
           (-180.0 180.0)
           (-180.0 180.0)
 end
 begin
     id 9 
     name rfoot
     direction -7.12931e-012 -0.404275 0.914637   
     length 0.524692  
     axis -90 1.73656e-015 -10   XYZ
    dof rx ry rz
    limits (-180.0 180.0)
           (-180.0 180.0)
           (-180.0 180.0)
  end
  begin
     id 10 
     name rtoes
     direction -7.79289e-012 -4.41454e-011 1   
     length 0.254983   
     axis -90 1.73656e-015 -10   XYZ
    dof rx ry rz
    limits (-180.0 180.0)
           (-180.0 180.0)
           (-180.0 180.0)
  end
  begin
     id 11 
     name lowerback
     direction -0.0214086 0.993738 0.109665   
     length 0.417614   
     axis 0 -0 0   XYZ
    dof rx ry rz
    limits (-180.0 180.0)
           (-180.0 180.0)
           (-180.0 180.0)
  end
  begin
     id 12 
     name upperback
     direction 8.15962e-005 0.99996 0.00893412   
     length 0.419234   
     axis 0 -0 0   XYZ
    dof rx ry rz
    limits (-180.0 180.0)
           (-180.0 180.0)
           (-180.0 180.0)
  end
  begin
     id 13 
     name thorax
     direction 0.00826031 0.999067 -0.0423848   
     length 0.424697   
     axis 0 -0 0   XYZ
    dof rx ry rz
    limits (-180.0 180.0)
           (-180.0 180.0)
           (-180.0 180.0)
  end
  begin
     id 14 
     name lowerneck
     direction -0.0196262 0.994272 -0.105058   
     length 0.355877   
     axis 0 -0 0   XYZ
    dof rx ry rz
    limits (-180.0 180.0)
           (-180.0 180.0)
           (-180.0 180.0)
  end
  begin
     id 15 
     name upperneck
     direction 0.000117372 0.999091 0.0426261   
     length 0.351054   
     axis 0 -0 0   XYZ
    dof rx ry rz
    limits (-180.0 180.0)
           (-180.0 180.0)
           (-180.0 180.0)
  end
  begin
     id 16
     name head
     direction 0.00157618 0.999651 0.0263619  
     length 0.374844  
     axis 0 -0 0   XYZ
    dof rx ry rz
    limits (-180.0 180.0)
           (-180.0 180.0)
           (-180.0 180.0)
  end
  begin
     id 17 
     name lshoulderjoint
     direction 0.981627 -0.190809 0  
     length 0.701763  
     axis 0 -0 -11   XYZ
    dof rx ry rz
    limits (-180.0 180.0)
           (-180.0 180.0)
           (-180.0 180.0)
  end
  begin
     id 18 
     name lhumerus
     direction 0.48481 -0.87462 -1.80676e-026   
     length 0.994704   
     axis -180 5.14477e-009 -151   XYZ
    dof rx ry rz
    limits (-180.0 180.0)
           (-180.0 180.0)
           (-180.0 180.0)
  end
  begin
     id 19
     name lradius
     direction 0.48481 -0.87462 -3.2569e-026   
     length 0.617638   
     axis -180 5.14477e-009 -151   XYZ
    dof rx ry rz
    limits (-180.0 180.0)
           (-180.0 180.0)
           (-180.0 180.0)
  end
  begin
     id 20
     name lwrist
     direction 0.48481 -0.87462 -6.73202e-026   
     length 0.308819   
     axis -180 5.14477e-009 -151   XYZ
    dof rx ry rz
    limits (-180.0 180.0)
           (-180.0 180.0)
           (-180.0 180.0)
  end
  begin
     id 21 
     name lhand
     direction 0.478366 -0.863761 -0.158376   
     length 0.291656   
     axis -180 5.14477e-009 -151   XYZ
    dof rx ry rz
    limits (-180.0 180.0)
           (-180.0 180.0)
           (-180.0 180.0)
  end
  begin
     id 22 
     name rshoulderjoint
     direction -0.981627 -0.190809 0   
     length 0.66654  
     axis 0 -0 11   XYZ 
    dof rx ry rz
    limits (-180.0 180.0)
           (-180.0 180.0)
           (-180.0 180.0)
  end
  begin
     id 23 
     name rhumerus
     direction -0.48481 -0.87462 1.77576e-026  
     length 1.15089   
     axis 180 5.14477e-009 151   XYZ
    dof rx ry rz
    limits (-180.0 180.0)
           (-180.0 180.0)
           (-180.0 180.0)
  end
  begin
     id 24 
     name rradius
     direction -0.48481 -0.87462 3.79421e-026   
     length 0.613887   
     axis 180 5.14477e-009 151   XYZ
    dof rx ry rz
    limits (-180.0 180.0)
           (-180.0 180.0)
           (-180.0 180.0)
  end
  begin
     id 25 
     name rwrist
     direction -0.48481 -0.87462 5.43623e-026   
     length 0.306944   
     axis 180 5.14477e-009 151   XYZ
    dof rx ry rz
    limits (-180.0 180.0)
           (-180.0 180.0)
           (-180.0 180.0)
  end
  begin
     id 26
     name rhand
     direction -0.479273 -0.864638 -0.150661   
     length 0.306429   
     axis 180 5.14477e-009 151   XYZ
    dof rx ry rz
    limits (-180.0 180.0)
           (-180.0 180.0)
           (-180.0 180.0)
  end
:hierarchy
  begin
    root lhipjoint rhipjoint lowerback 
    lhipjoint lfemur
    lfemur ltibia
    ltibia lfoot
    lfoot ltoes
    rhipjoint rfemur
    rfemur rtibia
    rtibia rfoot
    rfoot rtoes
    lowerback upperback
    upperback thorax
    thorax lowerneck lshoulderjoint rshoulderjoint
    lowerneck upperneck
    upperneck head
    lshoulderjoint lhumerus
    lhumerus lradius
    lradius lwrist
    lwrist lhand
    rshoulderjoint rhumerus
    rhumerus rradius
    rradius rwrist
    rwrist rhand
  end

:FULLY-SPECIFIED
:DEGREES
1050
root -10.2824 3.72536 -0.553751 94.8462 -74.0622 89.4897
lowerback -17.5095 -0.876987 -2.7919
upperback -4.51129 -0.870735 -0.886531
thorax 4.99244 -0.561766 0.447151
lowerneck 14.7997 1.35511 -2.19392
upperneck -4.01494 1.41257 0.712643
head -4.01562 0.683792 0.523529
rshoulderjoint 1.17161 -3.04052 -32.085
rhumerus -10.6663 -27.7493 -52.666
rradius 24.7567 -6.99722e-014 -3.49861e-014
rwrist 1.43927e-013 10.4619 -2.74917e-014
rhand 14.9779 -9.45268 25.7028
lshoulderjoint 2.59396 9.18297 26.8483
lhumerus -0.103542 -6.12445 50.9773
lradius 29.1519 1.87852e-014 7.55382e-014
lwrist 3.60398e-013 -8.73102 1.63306e-013
lhand 16.7024 8.2405 -20.864
rfemur -12.3408 13.2484 7.98217
rtibia -1.66979e-014 -6.36111e-015 -5.56597e-015
rfoot -4.12612 15.6023 -21.062
rtoes 1.43125e-014 4.56708e-014 3.81667e-014
lfemur -10.6258 4.7616 -20.1119
ltibia -2.54444e-014 -5.56597e-015 -7.15625e-015
lfoot -5.22664 -4.08696 -0.047432
ltoes 2.22639e-014 1.8313e-014 -1.98785e-014
1051
root -10.286 3.72498 -0.553049 95.3574 -74.0021 89.9455
lowerback -17.5939 -0.899903 -2.83262
upperback -4.50304 -0.891376 -0.88998
thorax 5.04718 -0.573351 0.460618
lowerneck 14.8164 1.41144 -2.17963
upperneck -4.04484 1.48749 0.682143
head -4.03042 0.722276 0.504412
rshoulderjoint 1.18639 -3.08385 -32.0542
rhumerus -10.6151 -27.4593 -52.6264
rradius 24.878 -3.24417e-013 1.78608e-013
rwrist -6.51245e-013 10.2352 7.19117e-013
rhand 14.9739 -9.24249 25.8147
lshoulderjoint 2.5969 9.20531 26.8291
lhumerus -0.107673 -6.42448 50.9749
lradius 29.5244 2.94698e-014 -5.08889e-014
lwrist -7.11218e-013 -8.77 -2.22054e-013
lhand 16.711 8.2501 -21.0302
rfemur -12.3542 13.4148 7.88309
rtibia -5.32743e-014 -1.59028e-015 7.15625e-015
rfoot -4.17401 15.5671 -21.1126
rtoes 1.2921e-013 1.78409e-014 -4.77083e-015
lfemur -10.6261 5.24232 -20.262
ltibia -5.725e-014 -3.18055e-015 6.36111e-015
lfoot -5.2837 -4.11597 -0.402444
ltoes 1.24936e-013 -1.80335e-014 3.97569e-015
1052
root -10.2892 3.72485 -0.552449 95.8314 -73.9528 90.3991
lowerback -17.6546 -0.896381 -2.8069
upperback -4.47848 -0.887528 -0.902474
thorax 5.10514 -0.571903 0.432352
lowerneck 14.782 1.44441 -2.19235
upperneck -4.05408 1.53018 0.681415
head -4.02773 0.74389 0.503077
rshoulderjoint 1.21228 -3.15356 -32.0402
rhumerus -10.5378 -27.1647 -52.6541
rradius 25.0281 -3.49861e-014 1.30701e-013
rwrist -6.01267e-013 10.2969 3.74984e-013
rhand 14.8524 -9.31267 25.9828
lshoulderjoint 2.59852 9.20942 26.8318
lhumerus -0.040215 -6.73998 50.9916
lradius 29.8264 2.06239e-014 -4.77083e-015
lwrist -7.56535e-013 -8.89814 -1.52112e-013
lhand 16.664 8.39966 -21.2176
rfemur -12.363 13.5832 7.82617
rtibia 1.27222e-014 4.77083e-015 -1.11319e-014
rfoot -4.20914 15.5578 -21.1637
rtoes -7.23576e-014 2.45499e-014 1.59028e-014
lfemur -10.6185 5.72554 -20.3716
ltibia 7.39479e-014 1.74931e-014 -2.14687e-014
lfoot -5.3391 -4.0859 -0.768893
ltoes -8.09054e-014 5.98528e-014 6.12257e-014
1053
root -10.2925 3.7247 -0.55162 96.2329 -73.8743 90.7861
lowerback -17.7765 -0.923222 -2.77346
upperback -4.44957 -0.922888 -0.922122
thorax 5.20131 -0.590256 0.382428
lowerneck 14.7265 1.48551 -2.10912
upperneck -4.04113 1.59689 0.621476
head -4.0112 0.778472 0.462522
rshoulderjoint 1.19261 -3.11672 -31.9515
rhumerus -10.4474 -27.009 -52.6659
rradius 25.2023 -1.17681e-013 7.56376e-014
rwrist 1.19637e-013 10.3762 2.18257e-013
rhand 14.7814 -9.29803 26.1648
lshoulderjoint 2.62299 9.28176 26.8564
lhumerus 0.0320556 -6.82793 51.0349
lradius 30.0684 4.47266e-015 7.95139e-016
lwrist 1.73881e-013 -8.98003 2.01251e-014
lhand 16.7119 8.3898 -21.3273
rfemur -12.4002 13.7335 7.7653
rtibia -5.00937e-014 -2.54444e-014 1.03368e-014
rfoot -4.24339 15.5492 -21.225
rtoes 6.08281e-014 -4.29375e-014 -1.90833e-014
lfemur -10.6437 6.18631 -20.4861
ltibia -7.71285e-014 -7.95139e-015 1.90833e-014
lfoot -5.38873 -4.15203 -1.13767
ltoes 1.10624e-013 -4.63044e-014 -3.65764e-014
1054
root -10.2956 3.72479 -0.550973 96.5547 -73.8032 91.0876
lowerback -17.8555 -0.925996 -2.73325
upperback -4.46154 -0.932834 -0.929019
thorax 5.23024 -0.595851 0.348894
lowerneck 14.8072 1.5258 -2.15845
upperneck -4.08662 1.6388 0.616007
head -4.04495 0.800376 0.465757
rshoulderjoint 1.20442 -3.14778 -31.9507
rhumerus -10.4263 -26.7357 -52.6799
rradius 25.4037 6.36111e-014 -1.79204e-013
rwrist 6.6475e-013 10.5069 -5.01393e-013
rhand 14.6208 -9.39897 26.4292
lshoulderjoint 2.60147 9.23433 26.8087
lhumerus 0.0384831 -6.93741 51.0614
lradius 30.2382 -1.21259e-014 -1.74931e-014
lwrist 7.3746e-013 -9.0166 9.74155e-014
lhand 16.7313 8.44697 -21.4804
rfemur -12.4299 13.8616 7.70572
rtibia -8.74653e-015 -2.06736e-014 3.18055e-015
rfoot -4.28648 15.5314 -21.2745
rtoes -4.17448e-014 -1.48939e-013 8.42847e-014
lfemur -10.6658 6.62577 -20.5992
ltibia 7.95139e-016 -3.18055e-015 2.94201e-014
lfoot -5.45323 -4.20077 -1.49581
ltoes -1.02374e-014 -6.27414e-014 -2.46493e-014
1055
root -10.2986 3.72484 -0.550241 96.7931 -73.6954 91.3383
lowerback -17.9652 -0.983484 -2.69721
upperback -4.46225 -1.01302 -0.92739
thorax 5.28957 -0.63617 0.310475
lowerneck 14.7331 1.57125 -2.06275
upperneck -4.03144 1.7122 0.540707
head -4.00907 0.838423 0.417425
rshoulderjoint 1.1929 -3.12516 -31.9045
rhumerus -10.2986 -26.3393 -52.7692
rradius 25.6135 -2.29e-013 9.29318e-014
rwrist -5.66173e-013 10.5526 4.83673e-013
rhand 14.4389 -9.42036 26.7555
lshoulderjoint 2.65991 9.40159 26.8757
lhumerus 0.127961 -6.98067 51.1653
lradius 30.3198 8.94531e-015 -1.15295e-013
lwrist -7.21676e-013 -9.17426 -3.16539e-013
lhand 16.7526 8.53765 -21.5764
rfemur -12.4993 13.9783 7.66981
rtibia -1.59028e-015 -1.59028e-014 1.43125e-014
rfoot -4.31672 15.5017 -21.3305
rtoes 5.20816e-014 -7.30534e-014 4.77083e-015
lfemur -10.7297 7.04884 -20.6842
ltibia 6.04305e-014 3.18055e-015 1.35174e-014
lfoot -5.4998 -4.22157 -1.85927
ltoes 2.05742e-014 -5.11995e-014 -6.36111e-015
1056
root -10.3012 3.72509 -0.549717 96.9805 -73.5784 91.5522
lowerback -18.0472 -0.993618 -2.61802
upperback -4.52799 -1.04483 -0.924517
thorax 5.26262 -0.652667 0.260843
lowerneck 14.8561 1.61049 -2.1006
upperneck -4.01874 1.75346 0.547582
head -4.03022 0.858224 0.422632
rshoulderjoint 1.16438 -3.04906 -31.9126
rhumerus -10.3154 -26.0457 -52.8161
rradius 25.8434 4.6118e-013 -4.94974e-014
rwrist -2.9766e-013 10.5678 -4.30312e-013
rhand 14.2156 -9.43099 27.0877
lshoulderjoint 2.63348 9.32072 26.854
lhumerus 0.0743016 -6.91681 51.2217
lradius 30.3426 -2.96189e-014 -1.98785e-014
lwrist -6.95969e-013 -9.20868 -1.0794e-013
lhand 16.8195 8.57249 -21.6883
rfemur -12.5877 14.088 7.64929
rtibia -3.65764e-014 -2.06736e-014 -3.97569e-015
rfoot -4.34646 15.4925 -21.3836
rtoes -8.74653e-014 4.16951e-014 -9.54166e-015
lfemur -10.8162 7.46236 -20.7536
ltibia 9.54166e-015 -4.77083e-015 -1.43125e-014
lfoot -5.54187 -4.2193 -2.2272
ltoes -8.5875e-014 3.70858e-014 -2.14687e-014
